<svg width="15" height="14" fill="none" xmlns="http://www.w3.org/2000/svg"><path d="M13.25 5.877c-1.868-.279-3.424-1.543-5.295-1.801a4.9 4.9 0 0 0-1.525.04c-.563.1-1.109.267-1.663.407-1.065.269-2.305.342-3.154 1.12-.644.593-1.001 1.593-.427 2.355.647.865 1.834.89 2.806.791.56-.056 1.126-.137 1.688-.076a3.7 3.7 0 0 1 1.476.498c.446.266.746.63 1.146.923.176.13.372.233.592.268.257.04.508-.026.747-.117 1.163-.462 2.193-1.205 3.178-1.961.428-.327.973-.66 1.206-1.17.178-.39.164-.99-.28-1.202-.156-.076-.32-.054-.486-.08-.143-.022-.203.193-.059.218.153.027.33-.003.471.078.202.118.26.388.234.605-.066.529-.561.865-.95 1.162-.943.729-1.908 1.452-2.99 1.96-.246.118-.507.247-.78.286a.963.963 0 0 1-.653-.162c-.376-.238-.662-.596-1.03-.852a3.987 3.987 0 0 0-1.322-.595c-.473-.113-.987-.122-1.486-.08-.99.085-2.078.315-2.96-.283-.375-.253-.623-.658-.613-1.116.01-.416.214-.812.484-1.12.72-.809 1.87-.931 2.869-1.15 1.03-.228 2.043-.632 3.118-.563 1.778.11 3.28 1.254 4.969 1.697.209.056.422.1.632.133.143.022.201-.195.059-.218l-.002.005Z" fill="#fff" stroke="#fff"/></svg>