<svg width="76" height="54" fill="none" xmlns="http://www.w3.org/2000/svg"><path d="M5.557 7.475c.25 1.039.62 2.03.95 3.045.172.543.363 1.11.447 1.672.096.639-.161 1.302-.61 1.762-.381.394-.925.549-1.402.8a8.384 8.384 0 0 0-1.2.77 6.812 6.812 0 0 0-1.72 1.929c-.896 1.517-1.1 3.32-.878 5.046.06.477.233.979.22 1.457-.017.573-.274 1.11-.346 1.672-.113.895.311 1.803.884 2.472 1.302 1.51 3.41 2.09 5.303 2.352 2.418.335 4.902.197 7.273-.406a19.19 19.19 0 0 0 3.41-1.224c1.092-.513 2.304-1.218 3.6-1.284 2.252-.107 4.031 1.613 5.38 3.201.825.967 1.589 1.983 2.377 2.98.436.555.872 1.105 1.314 1.66.34.43.907.913.884 1.505-.018.435-.31.83-.735.955-.286.084-.627.066-.925.09l-1.07.071c-.895.06-2.107-.012-2.268 1.123-.132.92.4 1.857-.114 2.723-.46.782-1.32 1.331-1.469 2.287-.352 2.251 2.753 3.177 4.294 1.994.382-.292.627-.692.716-1.164.108-.573.442-.991.997-1.177.908-.304 1.965-.495 2.502-1.385.538-.884.323-2.066 1.165-2.824.71-.64 1.761-.788 2.68-.735 1.16.066 2.24.538 3.333.878.58.18 1.17.328 1.767.388.508.054 1.01-.03 1.517.006.31.024 1.075.132.842.61-.125.256-.483.465-.704.62a7.067 7.067 0 0 1-2.46 1.11c-.514.126-1.058.204-1.488.526-.62.466-.483 1.47.34 1.6.222.037.437-.011.658.037.28.06.543.185.776.352.52.364.848.884 1.063 1.469.388 1.069.478 2.227 1.015 3.248a5.557 5.557 0 0 0 2.042 2.132 5.334 5.334 0 0 0 5.667-.137c.86-.562 1.505-1.332 1.953-2.252.25-.519.52-.973 1.075-1.2.411-.167.865-.22 1.301-.274.818-.108 1.726-.221 2.27-.92.543-.699.388-1.576-.025-2.275-.501-.842-1.301-1.362-2.22-1.666-1.016-.34-2.12-.478-3.052-1.027-.472-.275-1.206-.884-.496-1.344.508-.328 1.075-.585 1.612-.866 1.141-.585 2.317-1.122 3.565-1.45 1.248-.33 2.472-.263 3.643-.657 1.039-.353 1.84-1.105 2.556-1.9.758-.835 1.486-1.671 2.37-2.376a12.753 12.753 0 0 1 3.046-1.785c.531-.221 1.08-.4 1.642-.544.49-.125.967-.197 1.385-.507.346-.251.615-.598.77-.998.192-.471.15-.925.132-1.427a12.77 12.77 0 0 1 .412-3.744c.161-.62.37-1.23.62-1.821.24-.55.544-1.057.819-1.582.561-1.093-.58-1.762-1.368-2.282a20.037 20.037 0 0 0-6.58-2.842c-.573-.131-1.152-.215-1.708-.4-.609-.203-1.045-.561-1.475-1.027-.704-.77-1.445-1.278-2.496-1.41-1.057-.13-2.18.066-3.26.168a9.614 9.614 0 0 1-1.6.036c-.27-.024-.562-.048-.819-.144-.388-.137-.465-.441-.507-.812-.06-.507-.161-.943-.472-1.361-.31-.424-.734-.77-1.146-1.105-1.063-.866-2.132-1.714-3.189-2.592-.46-.382-1.039-.877-1.033-1.528 0-.257.113-.502.137-.759.024-.256 0-.495-.053-.734-.12-.466-.4-.836-.777-1.123-.245-.185-.477-.364-.627-.645-.095-.179-.09-.441-.25-.573-.138-.113-.3-.048-.448-.101-.233-.084-.412-.365-.645-.478-.37-.173-.812-.155-1.206-.287-.896-.292-1.463.436-2.15.89a8.134 8.134 0 0 1-3.153 1.23 8.002 8.002 0 0 1-3.386-.173c-.573-.161-1.164-.37-1.773-.328-.514.035-.962.274-1.356.597-.931.752-1.684 1.708-2.645 2.442-.962.729-2.036 1.26-3.237 1.302-1.2.042-2.15-.412-2.896-1.308-.352-.424-.669-.878-1.087-1.236-.418-.358-.871-.567-1.379-.705-1.015-.28-2.114-.31-3.153-.465-1.039-.156-2.012-.323-3.021-.478-1.93-.293-3.912-.58-5.858-.4-1.457.137-3.285.609-4.138 1.923-.138.215-.221.477-.311.716-.113.293-.245.603-.287.92-.065.465-.107 1.009-.035 1.469.041.274.46.155.418-.114-.048-.286 0-.597.023-.884.012-.19.012-.37.06-.555.173-.657.394-1.278.896-1.744 1.236-1.152 3.063-1.355 4.676-1.35 2.018.013 4.012.365 6 .682.944.149 1.894.304 2.843.418 1.159.143 2.353.22 3.213 1.104.74.759 1.236 1.672 2.245 2.114.913.4 1.953.406 2.908.161 1.063-.274 2-.883 2.83-1.582.454-.382.878-.794 1.296-1.212.418-.418.812-.884 1.326-1.165.609-.334 1.254-.209 1.887-.03.52.15 1.039.287 1.582.359a8.5 8.5 0 0 0 3.153-.197 8.332 8.332 0 0 0 2.866-1.332c.353-.257.753-.734 1.219-.728.31.006.627.185.937.227.316.041.567.09.806.316.173.167.28.275.532.31.053.007.239.054.149-.041.048.048.06.233.09.304.083.215.22.412.376.58.394.418.89.627 1.063 1.224.16.561-.132 1.039-.078 1.588.113 1.129 1.397 1.875 2.186 2.52.525.43 1.056.86 1.582 1.284.454.37.937.722 1.35 1.14.411.418.644.872.71 1.475.048.424.131.854.526 1.099.394.239.937.275 1.397.299a11.03 11.03 0 0 0 1.606-.066c1.063-.108 2.168-.317 3.237-.126.52.096 1.02.293 1.427.633.412.34.734.813 1.152 1.165.848.71 1.989.8 3.022 1.045a19.447 19.447 0 0 1 6.61 2.968c.496.346 1.248.776.896 1.475-.269.531-.58 1.033-.818 1.582a13.498 13.498 0 0 0-1.105 5.082c-.012.573.125 1.188-.018 1.737a1.866 1.866 0 0 1-.872 1.153c-.454.262-1.033.304-1.534.454-1.051.31-2.06.758-2.998 1.32a13.363 13.363 0 0 0-2.621 2.065c-.777.795-1.398 1.66-2.24 2.341-1.009.818-2.155.95-3.404 1.105-1.248.155-2.352.495-3.469.967a26.488 26.488 0 0 0-3.266 1.636c-.34.203-.615.478-.597.902.024.46.346.764.692 1.021 1.66 1.212 4.234.806 5.41 2.711.514.824.454 1.87-.525 2.3-.806.351-1.732.25-2.562.525-.382.125-.74.322-1.009.633-.352.406-.514.931-.794 1.385a5.075 5.075 0 0 1-2.466 2.042c-1.995.776-4.246.132-5.601-1.499-.765-.92-.992-2.024-1.278-3.147-.257-1.015-.645-1.994-1.553-2.597a2.285 2.285 0 0 0-1.296-.412c-.239 0-.471-.006-.585-.257-.125-.275.072-.495.293-.639.471-.292 1.08-.328 1.606-.477a8.1 8.1 0 0 0 1.529-.633c.483-.263.967-.574 1.35-.956.244-.239.393-.621.226-.943-.352-.675-1.433-.568-2.054-.544-2.293.096-4.287-1.48-6.598-1.278-.818.072-1.66.329-2.264.914a2.555 2.555 0 0 0-.65 1.057c-.174.537-.185 1.128-.43 1.642-.496 1.039-1.726 1.015-2.628 1.457a1.81 1.81 0 0 0-.866.92c-.095.22-.107.453-.179.68-.09.287-.298.544-.537.723-.956.693-2.61.537-3.29-.454-.305-.448-.4-.997-.186-1.499.192-.442.538-.794.848-1.152.275-.323.538-.663.67-1.07.143-.429.095-.883.041-1.319-.054-.406-.173-.878-.042-1.278.203-.639 1.057-.543 1.595-.579.668-.048 1.337-.078 2-.137.376-.036.723-.18.98-.46.567-.615.453-1.421-.03-2.03l-2.58-3.26c-.723-.92-1.433-1.858-2.227-2.718-1.332-1.445-3.076-2.83-5.154-2.729-1.158.06-2.215.568-3.236 1.063-1.117.544-2.252 1.01-3.446 1.344a18.625 18.625 0 0 1-7.35.537c-1.917-.244-4.15-.8-5.387-2.418a3.21 3.21 0 0 1-.59-1.242c-.144-.61.065-1.159.202-1.744.233-.967-.125-1.91-.185-2.884-.095-1.732.299-3.493 1.421-4.855a7.257 7.257 0 0 1 2.192-1.755c.436-.233.931-.382 1.32-.693.358-.287.626-.68.8-1.11.4-1.01-.042-2.12-.365-3.1-.316-.961-.668-1.905-.901-2.896-.066-.269-.478-.155-.418.114h-.006Z" fill="#fff" stroke="#fff"/><path d="M15.098 12.969c-.609 2.078-1.188 4.162-1.79 6.246-.162.567-.365 1.128-.473 1.708-.09.471-.12.979.096 1.42.472.956 1.84 1.022 2.759.998 2.412-.066 4.651-1.194 7.076-1.152 2.263.041 4.496.866 6.288 2.245 1.713 1.314 3.027 3.123 3.851 5.117.37.902.58 1.851.908 2.771.28.8.686 1.636 1.445 2.09 1.015.603 2.161.203 3.189-.113 1.26-.389 2.561-.58 3.869-.7.95-.083 1.923-.154 2.854.079.418.107.836.268 1.17.555.335.287.526.675.681 1.099.132.37.263.764.532 1.063.293.328.746.447 1.17.334.496-.132.89-.514 1.284-.824a4.989 4.989 0 0 1 1.403-.758c1.01-.359 2.079-.52 3.07-.932.991-.418 1.893-1.11 2.776-1.762.884-.65 1.732-1.182 2.735-1.564.848-.328 1.726-.597 2.514-1.057.788-.46 1.445-1.159 1.702-2.072.15-.538.18-1.099.197-1.654.018-.556.036-1.135-.143-1.672-.352-1.051-1.47-1.672-2.359-2.222a31.965 31.965 0 0 0-2.926-1.564c-2.018-.973-4.096-1.851-5.983-3.063-1.887-1.219-3.5-2.974-5.016-4.724-.758-.878-1.517-1.755-2.34-2.567-.777-.765-1.637-1.475-2.658-1.881-2.347-.938-4.849.364-7.01 1.224a88.13 88.13 0 0 0-3.458 1.45c-1.14.514-2.299 1.123-3.44 1.709-.543.28-1.104.537-1.701.68a5.557 5.557 0 0 1-1.834.108c-1.277-.125-2.502-.573-3.708-.973-.848-.281-1.702-.544-2.573-.723-.819-.167-1.684-.275-2.514-.114-.681.132-1.284.508-1.613 1.135-.125.245.245.466.37.221.759-1.475 2.95-1.01 4.228-.693 2.072.514 4.06 1.529 6.223 1.607 1.2.041 2.28-.329 3.337-.878 1.057-.543 2.156-1.129 3.267-1.63a83.433 83.433 0 0 1 3.535-1.487c1.123-.448 2.251-.944 3.422-1.272 1.17-.323 2.346-.4 3.463.09 1.021.447 1.869 1.218 2.64 2.006 1.564 1.594 2.901 3.392 4.502 4.95 1.6 1.559 3.44 2.681 5.41 3.655 1.97.973 3.995 1.809 5.876 2.932.46.274.913.567 1.35.883.435.317.913.705 1.098 1.26.185.556.143 1.129.125 1.684-.024.562-.06 1.129-.257 1.66-.65 1.78-2.878 2.156-4.412 2.819-1.971.854-3.41 2.603-5.464 3.29-.968.328-1.983.49-2.926.884a5.5 5.5 0 0 0-1.272.764c-.358.287-.824.752-1.326.687-.46-.054-.65-.526-.794-.908-.15-.4-.275-.8-.537-1.146-.496-.657-1.296-.98-2.09-1.111-.95-.155-1.911-.078-2.867.012-1.248.12-2.49.316-3.69.687-1.009.31-2.21.752-3.117-.024-.65-.562-.938-1.445-1.176-2.245-.287-.962-.568-1.905-.992-2.813a13.345 13.345 0 0 0-1.6-2.592c-1.314-1.666-3.051-2.973-5.034-3.726a10.759 10.759 0 0 0-3.123-.687c-1.069-.077-2.21.054-3.296.3-1.188.262-2.359.632-3.565.775-.58.066-1.176.084-1.755 0-.49-.071-1.07-.203-1.326-.668-.245-.442-.138-1.004-.018-1.463.143-.556.316-1.105.472-1.654.28-.98.561-1.96.836-2.938.292-1.022.585-2.037.878-3.058.077-.268-.335-.382-.418-.113h-.007Z" fill="#fff" stroke="#fff"/><path d="M31.102 18.103c2.824 2.246 4.192 5.822 7.04 8.038a9.357 9.357 0 0 0 2.562 1.391c1.027.37 2.09.615 3.14.914 2.02.573 4.139 1.636 6.289 1.158 1.63-.364 3.176-1.678 2.955-3.487-.244-2.048-2.185-3.225-3.887-3.989-.98-.442-1.994-.848-2.866-1.487a7.053 7.053 0 0 1-1.965-2.233c-.483-.866-.633-1.756-1.015-2.622-.167-.382-.394-.74-.722-1.009-.389-.31-.866-.442-1.35-.52-2.365-.345-4.777-.1-7.13.21-1.02.131-2.24.161-3.11.782-.67.478-1.219 1.481-.688 2.257.186.275.478.394.729.597.215.174.52-.125.305-.304-.227-.191-.55-.31-.705-.58-.221-.388-.06-.89.19-1.224.616-.812 1.756-.895 2.682-1.015 2.257-.304 4.544-.579 6.82-.388.519.042 1.074.078 1.564.275.424.173.716.495.925.89.395.752.526 1.618.89 2.394.394.836.95 1.607 1.618 2.245.675.64 1.517 1.147 2.383 1.553 1.72.806 3.738 1.463 4.628 3.296.376.776.4 1.684-.054 2.43-.412.681-1.128 1.141-1.869 1.392-1.965.65-3.983-.245-5.846-.836-1.923-.61-3.983-.908-5.697-2.048-2.836-1.881-4.227-5.207-6.598-7.554a11.936 11.936 0 0 0-.92-.824c-.215-.173-.52.131-.304.304l.006-.006Z" fill="#fff" stroke="#fff"/></svg>