<svg width="25" height="18" fill="none" xmlns="http://www.w3.org/2000/svg"><path d="M2.102 5.104c2.825 2.246 4.192 5.822 7.04 8.038a9.36 9.36 0 0 0 2.562 1.391c1.027.37 2.09.615 3.141.914 2.019.573 4.138 1.636 6.288 1.158 1.63-.364 3.177-1.678 2.956-3.487-.245-2.048-2.186-3.225-3.887-3.989-.98-.442-1.995-.848-2.867-1.487a7.052 7.052 0 0 1-1.964-2.233c-.484-.866-.633-1.756-1.015-2.622-.168-.382-.395-.74-.723-1.009-.388-.31-.866-.442-1.35-.52-2.364-.346-4.777-.1-7.13.21-1.02.131-2.239.161-3.11.782-.67.478-1.219 1.48-.687 2.257.185.275.478.394.728.597.215.174.52-.125.305-.304-.227-.191-.55-.31-.705-.58-.22-.388-.06-.89.191-1.224.615-.812 1.756-.895 2.682-1.015 2.257-.304 4.544-.579 6.819-.388.52.042 1.075.078 1.564.275.424.173.717.496.926.89.394.752.525 1.618.89 2.394.394.836.95 1.606 1.618 2.245.675.64 1.517 1.147 2.383 1.553 1.72.806 3.738 1.463 4.627 3.296.377.776.4 1.684-.053 2.43-.412.681-1.129 1.141-1.87 1.392-1.964.65-3.982-.245-5.845-.836-1.923-.61-3.983-.908-5.697-2.048C7.082 11.303 5.69 7.977 3.32 5.63a11.93 11.93 0 0 0-.92-.824c-.214-.173-.519.131-.304.304l.006-.006Z" fill="#fff" stroke="#fff"/></svg>