<svg width="53" height="31" fill="none" xmlns="http://www.w3.org/2000/svg"><path d="M3.099 5.968c-.61 2.078-1.189 4.162-1.792 6.246-.16.568-.364 1.129-.471 1.708-.09.472-.12.98.095 1.421.472.956 1.84 1.021 2.759.998 2.412-.066 4.652-1.195 7.076-1.153 2.263.042 4.496.866 6.288 2.245 1.714 1.314 3.027 3.123 3.851 5.118.37.902.58 1.851.908 2.77.28.8.687 1.637 1.445 2.09 1.015.604 2.162.204 3.189-.113 1.26-.388 2.562-.58 3.87-.699.949-.083 1.922-.155 2.854.078.418.108.836.269 1.17.555.334.287.526.675.68 1.1.132.37.264.764.532 1.062.293.329.747.448 1.17.334.496-.131.89-.513 1.284-.824a4.99 4.99 0 0 1 1.404-.758c1.009-.358 2.078-.52 3.069-.931.991-.418 1.893-1.111 2.777-1.762.883-.651 1.731-1.182 2.735-1.565.848-.328 1.725-.597 2.514-1.057.788-.46 1.445-1.158 1.701-2.072.15-.537.18-1.098.197-1.654.018-.555.036-1.134-.143-1.672-.352-1.05-1.469-1.672-2.359-2.221a31.98 31.98 0 0 0-2.926-1.564c-2.018-.974-4.096-1.852-5.983-3.064-1.887-1.218-3.5-2.974-5.016-4.723-.758-.878-1.517-1.756-2.34-2.568-.777-.764-1.637-1.475-2.658-1.88-2.347-.938-4.849.363-7.01 1.223a87.924 87.924 0 0 0-3.458 1.451c-1.14.514-2.299 1.123-3.44 1.708-.543.28-1.104.538-1.701.68a5.555 5.555 0 0 1-1.833.108c-1.278-.125-2.502-.573-3.709-.973-.847-.28-1.701-.543-2.573-.722-.818-.168-1.684-.275-2.514-.114-.68.131-1.284.508-1.612 1.135-.126.244.244.465.37.22.758-1.474 2.95-1.009 4.228-.692 2.072.513 4.06 1.529 6.222 1.606 1.2.042 2.28-.328 3.338-.878 1.057-.543 2.155-1.128 3.266-1.63a83.38 83.38 0 0 1 3.535-1.487c1.123-.448 2.251-.943 3.422-1.272 1.17-.322 2.346-.4 3.463.09 1.021.448 1.87 1.218 2.64 2.006 1.564 1.595 2.902 3.392 4.502 4.95 1.6 1.56 3.44 2.682 5.41 3.655 1.97.973 3.995 1.81 5.876 2.932.46.275.913.567 1.35.884.435.316.913.704 1.098 1.26.185.555.143 1.128.126 1.684-.024.561-.06 1.128-.257 1.66-.651 1.78-2.879 2.155-4.413 2.818-1.97.854-3.41 2.604-5.464 3.29-.967.329-1.983.49-2.926.884a5.497 5.497 0 0 0-1.272.765c-.358.286-.824.752-1.325.686-.46-.053-.651-.525-.795-.907-.149-.4-.274-.8-.537-1.147-.496-.657-1.296-.98-2.09-1.11-.95-.156-1.91-.078-2.866.011-1.248.12-2.49.317-3.69.687-1.01.31-2.21.753-3.118-.024-.65-.561-.937-1.445-1.176-2.245-.287-.961-.567-1.905-.991-2.813a13.353 13.353 0 0 0-1.6-2.591c-1.314-1.666-3.052-2.974-5.034-3.726a10.756 10.756 0 0 0-3.123-.687c-1.07-.078-2.21.054-3.297.299-1.188.262-2.358.633-3.565.776-.579.066-1.176.084-1.755 0-.49-.072-1.07-.203-1.326-.669-.245-.442-.137-1.003-.018-1.463.144-.555.317-1.105.472-1.654.28-.98.561-1.959.836-2.938l.878-3.057c.077-.269-.335-.382-.418-.114h-.006Z" fill="#fff" stroke="#fff"/><path d="M19.102 11.103c2.824 2.246 4.192 5.822 7.04 8.038a9.358 9.358 0 0 0 2.562 1.391c1.027.37 2.09.615 3.14.914 2.019.573 4.139 1.636 6.288 1.158 1.63-.364 3.177-1.678 2.956-3.487-.245-2.048-2.185-3.225-3.887-3.989-.98-.442-1.995-.848-2.866-1.487a7.05 7.05 0 0 1-1.965-2.233c-.484-.866-.633-1.756-1.015-2.622-.167-.382-.394-.74-.723-1.009-.388-.31-.866-.442-1.35-.52-2.364-.346-4.776-.1-7.129.21-1.021.131-2.24.161-3.111.782-.669.478-1.218 1.481-.687 2.257.185.275.478.394.729.597.215.174.52-.125.304-.304-.227-.191-.55-.31-.704-.58-.221-.388-.06-.89.19-1.224.616-.812 1.756-.895 2.682-1.015 2.257-.304 4.544-.579 6.82-.388.519.042 1.074.078 1.564.275.424.173.716.496.925.89.394.752.526 1.618.89 2.394.394.836.95 1.607 1.618 2.245.675.64 1.517 1.147 2.383 1.553 1.72.806 3.738 1.463 4.628 3.296.376.776.4 1.684-.054 2.43-.412.681-1.129 1.141-1.87 1.392-1.964.65-3.982-.245-5.845-.836-1.923-.61-3.983-.908-5.697-2.048-2.836-1.881-4.228-5.207-6.598-7.554a11.935 11.935 0 0 0-.92-.824c-.215-.173-.52.131-.304.304l.006-.006Z" fill="#fff" stroke="#fff"/></svg>