<svg xmlns="http://www.w3.org/2000/svg" width="194" height="39"><path d="M 165.36 5.13 L 172.826 12.57 L 180.292 5.13 L 193.525 5.13 L 179.229 18.907 L 194 33.528 L 180.663 33.528 L 172.294 25.398 L 164.094 33.528 L 150.966 33.528 L 165.843 19.116 L 151.443 5.13 Z M 132.235 4.92 C 144.802 4.92 151.086 9.778 151.086 19.5 L 151.086 21.356 L 121.396 21.356 C 122.138 24.874 125.329 26.633 130.975 26.633 L 131.024 26.633 C 132.438 26.633 133.69 26.535 134.782 26.333 C 135.873 26.13 136.72 25.886 137.329 25.607 C 137.931 25.321 138.428 25.007 138.82 24.651 C 139.205 24.301 139.463 24.016 139.604 23.799 C 139.736 23.583 139.82 23.373 139.855 23.171 L 150.946 23.171 L 150.946 23.227 C 150.945 24.07 150.825 24.909 150.589 25.719 C 150.351 26.542 149.833 27.435 149.028 28.406 C 148.224 29.376 147.181 30.22 145.901 30.946 C 144.62 31.665 142.815 32.272 140.485 32.754 C 138.147 33.242 135.433 33.479 132.347 33.479 L 129.471 33.479 C 125.972 33.479 122.95 33.103 120.395 32.349 C 117.841 31.595 115.861 30.549 114.448 29.209 C 113.035 27.869 112.005 26.409 111.348 24.832 C 110.691 23.255 110.361 21.531 110.361 19.654 L 110.361 18.544 C 110.361 16.701 110.662 15.005 111.271 13.47 C 111.874 11.928 112.859 10.497 114.217 9.17 C 115.582 7.845 117.527 6.805 120.067 6.051 C 122.607 5.297 125.636 4.921 129.164 4.921 L 132.235 4.921 Z M 87.026 4.92 C 99.592 4.92 105.876 9.778 105.876 19.5 L 105.876 21.356 L 76.187 21.356 C 76.929 24.874 80.119 26.633 85.766 26.633 L 85.814 26.633 C 87.229 26.633 88.481 26.535 89.573 26.333 C 90.664 26.13 91.511 25.886 92.12 25.607 C 92.721 25.321 93.218 25.007 93.61 24.651 C 93.995 24.301 94.253 24.016 94.394 23.799 C 94.526 23.583 94.611 23.373 94.645 23.171 L 105.736 23.171 L 105.722 23.178 L 105.722 23.227 C 105.722 24.064 105.603 24.895 105.372 25.719 C 105.134 26.542 104.616 27.435 103.812 28.406 C 103.008 29.376 101.965 30.22 100.684 30.946 C 99.403 31.665 97.598 32.272 95.268 32.754 C 92.931 33.242 90.216 33.479 87.13 33.479 L 84.255 33.479 C 80.756 33.479 77.733 33.103 75.179 32.349 C 72.625 31.595 70.645 30.549 69.231 29.209 C 67.818 27.869 66.788 26.409 66.132 24.832 C 65.473 23.255 65.152 21.531 65.152 19.654 L 65.152 18.544 C 65.152 16.701 65.453 15.005 66.062 13.47 C 66.664 11.928 67.65 10.497 69.007 9.17 C 70.372 7.845 72.317 6.805 74.857 6.051 C 77.397 5.297 80.427 4.921 83.954 4.921 L 87.026 4.921 Z M 130.681 11.209 L 130.632 11.209 C 125.524 11.209 122.516 12.737 121.613 15.787 L 139.756 15.787 C 138.952 12.737 135.923 11.209 130.682 11.209 Z M 85.458 11.209 L 85.409 11.209 C 80.301 11.209 77.292 12.737 76.39 15.787 L 94.533 15.787 C 93.729 12.737 90.699 11.209 85.458 11.209 Z M 11.238 39 L 0 39 L 0 5.172 L 11.238 5.172 L 11.238 9.555 C 20.222 1.724 42.704 2.945 42.501 19.255 C 42.333 32.802 25.827 36.139 16.002 31.832 C 13.63 30.792 12.042 29.822 11.238 28.915 Z M 18.046 24.134 C 21.307 26.758 28.359 27.226 31.558 24.184 C 34.419 21.468 34.511 16.715 31.586 14 C 28.43 11.076 21.16 11.495 17.969 14.077 C 14.491 16.89 14.596 21.357 18.046 24.134 Z M 48.099 0 L 59.337 0 L 59.337 33.375 L 48.099 33.375 Z" fill="#FFFFFF"></path></svg>